<?xml version="1.0" standalone="no"?>
<!DOCTYPE svg PUBLIC "-//W3C//DTD SVG 20010904//EN"
 "http://www.w3.org/TR/2001/REC-SVG-20010904/DTD/svg10.dtd">
<svg version="1.0" xmlns="http://www.w3.org/2000/svg"
 width="400.000000pt" height="400.000000pt" viewBox="0 0 400.000000 400.000000"
 preserveAspectRatio="xMidYMid meet">
<metadata>
Created by potrace 1.14, written by Peter Selinger 2001-2017
</metadata>
<g transform="translate(0.000000,400.000000) scale(0.100000,-0.100000)"
fill="#000000" stroke="none">
<path d="M1580 3996 c0 -8 48 -12 66 -5 13 5 7 8 -23 8 -24 1 -43 -1 -43 -3z"/>
<path d="M1707 3980 c3 -11 10 -20 17 -20 6 0 4 -5 -4 -10 -24 -15 -2 -12 31
6 17 8 38 14 47 12 9 -1 28 4 40 11 13 7 26 10 29 8 2 -3 -4 -8 -15 -11 -26
-9 -35 -33 -16 -40 8 -3 12 -2 9 3 -9 15 15 25 28 12 9 -9 8 -11 -6 -5 -12 4
-17 2 -15 -7 2 -8 -7 -15 -19 -17 -13 -2 -23 -7 -23 -11 0 -9 57 -6 85 5 16 6
15 3 -5 -15 -24 -22 -24 -22 -2 -11 42 21 34 3 -15 -32 -52 -37 -93 -47 -93
-21 0 11 -4 13 -12 5 -7 -5 -24 -13 -38 -17 -23 -7 -24 -7 -10 11 12 14 7 13
-25 -6 -37 -22 -39 -22 -22 -3 18 21 18 21 -1 16 -11 -2 -22 -14 -25 -24 -4
-16 -11 -18 -31 -13 -16 4 -26 2 -26 -5 0 -6 6 -11 14 -11 19 0 27 -13 17 -29
-6 -10 -16 -9 -47 3 -61 22 -220 58 -241 54 -17 -4 149 -63 207 -74 55 -10 68
-27 29 -39 -16 -5 -20 -13 -16 -31 2 -13 -1 -25 -7 -28 -6 -2 3 -5 19 -6 18
-2 23 -4 13 -7 -10 -2 -18 -9 -18 -14 0 -5 8 -9 18 -9 30 -1 -7 -17 -69 -29
-31 -7 -65 -18 -75 -26 -17 -13 -13 -14 40 -15 49 0 57 -3 52 -16 -4 -12 -1
-14 14 -10 64 19 65 17 20 -24 l-45 -41 43 7 c35 6 45 3 57 -12 8 -11 15 -14
15 -9 0 6 9 11 20 12 16 1 18 -2 10 -23 -10 -26 -8 -27 29 -24 23 2 23 0 -10
-26 -42 -35 -51 -48 -39 -52 12 -4 14 -23 3 -21 -5 1 -19 1 -32 0 -34 -1 -20
-12 21 -15 65 -6 62 -4 47 -23 -10 -11 -10 -14 -2 -9 27 16 53 15 53 -2 0 -12
3 -13 12 -4 20 20 25 14 34 -35 4 -27 9 -40 11 -30 6 22 15 22 30 -2 10 -15 9
-22 -2 -31 -8 -7 -15 -16 -15 -21 0 -15 28 -10 34 7 5 12 8 12 19 3 7 -7 14
-20 14 -30 2 -16 -2 -17 -37 -4 -56 20 -123 28 -168 20 -37 -6 -41 -9 -51 -51
-9 -34 -16 -44 -32 -44 -22 0 -75 -25 -101 -47 -16 -14 -16 -16 3 -36 10 -11
19 -28 20 -36 0 -9 4 -40 8 -69 6 -40 4 -55 -7 -64 -9 -8 -12 -23 -9 -45 4
-25 2 -33 -13 -38 -11 -3 -22 -20 -26 -38 -3 -18 -11 -35 -17 -39 -6 -3 10
-11 34 -16 39 -9 32 -10 -56 -10 -55 1 -90 3 -77 5 23 5 30 27 11 38 -5 4 -21
32 -35 63 -21 48 -27 54 -35 39 -14 -24 -20 -59 -9 -52 19 11 18 -13 0 -30
-11 -10 -20 -28 -20 -39 0 -19 -9 -24 -62 -35 -35 -7 -73 -15 -85 -18 -33 -7
-28 6 18 52 49 48 85 120 70 139 -7 9 -7 16 2 25 9 10 8 11 -8 5 -11 -4 -24
-10 -30 -14 -5 -4 -28 -13 -50 -20 -22 -7 -44 -16 -49 -21 -6 -5 -21 -9 -35
-9 -39 0 -153 -22 -146 -28 9 -9 -48 -42 -74 -42 -24 0 -52 -20 -133 -95 -34
-31 -53 -42 -68 -38 -12 3 -20 0 -20 -6 0 -7 -4 -9 -10 -6 -5 3 -10 3 -10 -2
0 -4 -21 -7 -47 -6 -27 0 -53 -3 -60 -8 -7 -7 -14 -6 -18 1 -9 15 -41 12 -83
-9 -22 -11 -71 -21 -120 -25 -80 -6 -85 -5 -114 19 -21 18 -38 25 -52 21 -12
-3 -31 -6 -42 -6 -20 0 -21 -6 -23 -84 l-2 -84 78 -7 c43 -4 168 -8 278 -9
189 -1 205 1 290 26 50 14 106 29 125 32 l35 6 -30 -26 c-16 -14 -48 -42 -70
-62 -73 -68 -113 -92 -151 -92 -34 0 -117 -47 -137 -77 -9 -14 -124 -69 -204
-98 -29 -10 -49 -23 -46 -28 3 -6 1 -7 -5 -3 -12 7 -92 -30 -127 -59 -19 -15
-18 -15 13 0 35 17 54 13 46 -10 -4 -8 -11 -12 -17 -8 -6 4 -8 0 -4 -10 3 -9
1 -17 -4 -19 -6 -2 -11 -11 -13 -20 -1 -10 -5 -21 -9 -24 -19 -20 3 -24 118
-24 77 0 125 -4 125 -10 0 -5 -6 -10 -13 -10 -8 0 -22 -9 -32 -20 -10 -11 -14
-20 -9 -20 13 0 44 -54 44 -77 0 -31 -13 -40 -70 -47 -53 -7 -58 -5 -105 29
l-50 36 36 -33 c20 -18 61 -50 92 -71 l55 -38 144 36 c78 20 162 41 185 47 44
11 88 46 98 78 3 10 45 47 93 81 64 46 108 69 166 87 52 15 89 33 105 51 32
34 247 152 319 176 l54 17 34 -33 c19 -18 34 -28 34 -23 0 6 -5 15 -12 22 -10
10 -7 16 12 30 14 9 29 17 34 17 10 0 44 -98 76 -220 26 -95 122 -307 159
-350 49 -56 69 -111 36 -98 -13 4 -12 -4 5 -48 12 -29 27 -65 35 -79 27 -51
37 -112 30 -182 -6 -54 -10 -68 -21 -64 -8 3 -20 9 -28 12 -9 3 -16 -5 -20
-29 -3 -18 -12 -42 -20 -52 -12 -16 -17 -17 -43 -6 -28 11 -93 64 -93 75 0 2
10 6 22 8 34 5 33 27 -4 44 -18 8 -46 22 -62 31 l-29 16 24 14 c13 8 16 12 6
9 -11 -3 -20 0 -23 9 -4 8 -13 15 -21 15 -8 0 -17 9 -20 20 -4 16 -11 19 -32
14 -39 -10 -41 -12 -41 -50 0 -40 -2 -41 -40 -12 -33 24 -44 20 -45 -20 0 -23
-6 -29 -43 -41 -40 -12 -45 -12 -66 8 -23 22 -80 28 -145 15 -27 -6 -31 -10
-31 -41 0 -73 -39 -93 -98 -50 -25 19 -29 26 -19 38 7 7 2 5 -11 -6 l-23 -19
-56 57 -55 58 -70 -27 c-38 -14 -68 -28 -66 -30 2 -2 34 6 71 18 64 21 67 21
87 3 28 -25 26 -35 -21 -80 -31 -31 -39 -46 -35 -65 5 -26 -23 -70 -44 -70 -7
0 -10 -8 -7 -20 6 -24 -11 -38 -19 -16 -14 37 -39 2 -48 -66 -2 -18 -9 -48
-16 -67 -12 -32 -14 -33 -27 -16 -11 17 -13 17 -13 2 0 -21 -49 -132 -55 -125
-2 2 0 21 6 42 6 21 9 40 6 42 -2 2 -44 -31 -93 -74 -49 -42 -103 -87 -119
-100 l-30 -23 49 5 c38 5 46 3 38 -7 -21 -25 -196 -106 -317 -147 l-80 -27 -3
-108 -3 -108 83 6 c79 5 81 5 43 -8 -22 -7 -52 -14 -67 -14 -52 -2 -58 -9 -58
-72 l0 -59 1885 0 c1144 0 1885 4 1885 9 0 9 36 23 91 35 17 4 37 23 60 58 44
69 47 78 17 50 l-24 -22 -22 23 c-20 21 -22 31 -16 79 6 48 4 57 -19 83 l-25
29 -7 -54 c-9 -63 -35 -129 -60 -150 -30 -25 -113 -15 -162 20 -47 34 -65 37
-84 14 -11 -14 -16 -9 -41 41 -26 50 -28 60 -18 91 6 18 10 42 8 51 -3 10 2
30 9 45 7 15 11 38 8 50 -4 17 5 34 37 67 23 24 43 40 45 34 2 -6 12 -9 21 -7
33 8 44 -9 29 -47 -8 -19 -17 -47 -21 -63 -7 -28 -6 -28 53 20 33 27 87 73
120 102 l59 52 12 -34 c6 -19 17 -39 25 -46 10 -8 11 -19 3 -48 -7 -26 -7 -37
1 -40 6 -2 14 -21 17 -43 4 -21 30 -78 60 -125 l53 -87 1 333 0 334 -24 -23
c-26 -24 -59 -105 -62 -151 -1 -14 -7 -45 -14 -69 l-12 -44 -24 25 -25 24 20
62 19 61 -22 -11 c-36 -18 -86 -59 -86 -69 0 -6 -12 -31 -27 -57 -16 -26 -29
-50 -29 -54 -1 -5 -2 -10 -3 -13 0 -3 -16 11 -33 32 -18 21 -37 41 -43 45 -5
4 16 34 48 67 31 33 57 64 57 69 0 5 -8 16 -18 25 -21 19 -76 41 -67 27 3 -6
-1 -10 -10 -10 -11 0 -15 5 -12 14 5 12 2 12 -20 1 -16 -9 -32 -11 -42 -5 -23
12 -56 50 -43 50 17 0 1 43 -27 73 -14 16 -41 35 -58 42 -18 8 -33 19 -33 26
0 8 6 6 18 -4 33 -30 34 -18 1 31 -18 26 -94 110 -170 187 -146 150 -174 191
-185 276 -3 30 -22 94 -40 143 -19 48 -34 90 -34 92 0 8 43 -18 89 -53 34 -25
47 -30 57 -22 11 9 14 7 14 -8 0 -22 33 -57 43 -47 3 4 32 -18 64 -49 32 -30
78 -70 103 -89 25 -19 81 -69 125 -111 86 -83 136 -114 242 -152 78 -29 89
-30 71 -11 -7 7 -19 11 -27 8 -9 -3 -12 -1 -7 6 4 6 -3 23 -16 37 -12 14 -41
71 -65 128 -108 251 -146 301 -363 462 -58 42 -110 82 -117 87 -8 7 -10 3 -6
-11 3 -12 10 -21 15 -21 5 0 7 -4 3 -9 -3 -6 10 -51 29 -100 18 -50 32 -91 30
-91 -3 0 -22 9 -44 20 -42 21 -77 63 -105 122 -9 20 -33 49 -53 65 -47 35 -97
92 -99 112 -1 9 -4 26 -7 39 -3 16 0 22 12 22 15 0 15 2 2 10 -13 8 -13 10 -1
10 10 0 3 12 -17 33 -18 18 -32 38 -32 44 0 7 -9 15 -20 18 -23 7 -27 25 -5
25 12 0 10 8 -9 38 -13 20 -27 51 -31 69 -7 35 -18 41 -84 45 -34 2 -47 9 -63
31 -25 35 -13 51 13 18 10 -13 19 -19 18 -15 -1 15 -27 79 -28 70 -2 -20 -51
39 -51 60 0 27 44 41 68 22 13 -11 14 -11 7 2 -50 84 -109 150 -133 150 -22 0
-84 44 -75 53 3 4 0 7 -8 7 -8 0 -20 -5 -26 -11 -18 -18 -46 -3 -38 21 5 16 3
19 -12 13 -15 -5 -16 -4 -7 8 6 8 10 24 8 37 -5 29 12 28 58 -3 49 -33 57 -32
22 4 -16 16 -34 36 -40 43 -5 7 -20 20 -33 28 -21 14 -19 15 30 11 36 -2 49 0
45 8 -9 14 -81 51 -99 51 -8 0 -20 6 -26 14 -7 8 -25 14 -40 14 -15 -1 -57 13
-92 29 -35 17 -97 40 -138 51 -80 23 -141 70 -160 122 -8 25 -7 26 16 22 19
-4 24 -1 21 9 -3 8 -12 13 -21 13 -9 -1 -13 4 -11 11 3 7 1 16 -5 20 -6 3 -11
13 -11 21 0 12 5 11 27 -6 18 -14 29 -17 33 -9 6 8 14 8 31 -2 22 -11 23 -11
10 5 -8 10 -17 39 -19 64 l-4 46 21 -24 20 -25 1 36 c0 40 23 59 38 32 8 -14
10 -14 15 1 4 9 14 16 23 16 11 0 14 5 10 16 -4 10 -1 14 6 11 7 -2 12 -12 11
-21 0 -10 9 -22 22 -28 18 -8 27 -6 44 8 25 22 94 26 86 6 -3 -7 0 -10 6 -6 6
3 14 16 19 28 8 19 9 19 9 -6 1 -16 6 -28 12 -28 7 0 9 9 6 21 -3 11 -3 27 0
35 5 13 9 13 27 1 30 -20 61 -26 79 -16 12 7 15 4 13 -14 -4 -35 -14 -46 -35
-40 -12 3 -32 -8 -57 -31 -21 -20 -46 -38 -55 -41 -9 -3 -19 -15 -22 -26 -4
-15 -2 -19 8 -15 8 3 32 10 54 16 22 6 47 17 55 25 20 20 26 19 27 -7 0 -13 3
-17 6 -10 2 6 16 12 29 12 14 0 36 7 49 16 13 9 29 13 35 9 13 -8 13 8 0 21
-6 6 -6 22 0 43 5 19 7 37 5 41 -3 4 1 13 9 19 11 9 15 2 21 -44 3 -30 11 -57
16 -60 5 -4 9 -16 10 -28 0 -21 0 -21 10 2 14 36 4 159 -16 181 -18 20 -13 40
11 40 8 0 14 5 14 10 0 6 -9 10 -20 10 -11 0 -20 6 -20 14 0 8 -5 18 -12 22
-8 5 -9 0 -5 -15 3 -15 -1 -24 -14 -31 -11 -7 -19 -7 -19 -1 0 5 6 12 13 14
10 4 10 6 0 6 -17 1 -18 91 -2 91 7 0 9 11 6 27 -3 15 1 37 10 49 14 21 12 26
-27 68 -23 25 -48 62 -55 83 -7 20 -20 38 -30 39 -24 3 -32 14 -11 14 10 0 14
5 11 11 -4 6 -13 8 -21 5 -9 -4 -18 4 -24 19 l-10 25 -384 0 c-379 0 -384 0
-379 -20z m234 -137 c1 -16 1 -31 0 -35 0 -5 6 -8 14 -8 21 0 19 -16 -2 -25
-53 -22 -83 -23 -108 -3 -29 23 -32 36 -7 45 9 4 19 9 22 12 11 13 56 40 68
40 6 1 13 -11 13 -26z m62 -72 c4 -16 0 -19 -25 -19 l-30 1 23 18 c13 10 25
19 25 19 1 0 4 -9 7 -19z m597 -162 c0 -24 -4 -29 -25 -29 -29 0 -29 2 -13 46
9 26 15 31 25 22 7 -6 13 -23 13 -39z m-270 31 c0 -5 -4 -10 -10 -10 -5 0 -10
5 -10 10 0 6 5 10 10 10 6 0 10 -4 10 -10z m113 -22 c3 -8 6 -6 6 5 1 21 17
22 25 1 8 -22 8 -26 -4 -19 -5 3 -10 1 -10 -5 0 -6 7 -13 15 -16 8 -4 15 -12
15 -20 0 -11 -4 -12 -17 -4 -10 5 -30 14 -45 20 -22 8 -28 16 -28 40 0 27 2
30 19 20 11 -5 22 -15 24 -22z m159 -70 c-6 -23 -28 -23 -36 -1 -6 15 -8 15
-16 3 -8 -13 -10 -13 -10 1 0 10 10 15 34 15 27 0 32 -3 28 -18z m-715 -174
c7 -59 13 -69 14 -23 0 32 1 30 14 -16 15 -56 13 -64 -12 -44 -12 9 -10 4 5
-15 20 -26 22 -53 3 -41 -20 12 -81 129 -80 153 l1 27 8 -25 8 -25 12 33 c15
41 19 37 27 -24z m363 26 c0 -5 -7 -7 -15 -4 -8 4 -15 8 -15 10 0 2 7 4 15 4
8 0 15 -4 15 -10z m291 -23 c-8 -8 -11 -7 -11 4 0 20 13 34 18 19 3 -7 -1 -17
-7 -23z m-501 -23 c6 -14 10 -30 10 -35 0 -13 -34 -11 -49 4 -10 10 -11 8 -5
-8 4 -12 3 -17 -2 -12 -13 12 -12 56 1 54 5 -1 9 4 8 11 -5 23 28 12 37 -14z
m-233 -76 c-3 -8 -6 -5 -6 6 -1 11 2 17 5 13 3 -3 4 -12 1 -19z m36 -78 c3
-11 1 -18 -4 -14 -5 3 -9 12 -9 20 0 20 7 17 13 -6z m77 -55 c11 -13 10 -14
-4 -9 -9 3 -16 10 -16 15 0 13 6 11 20 -6z m-2 -38 c8 -10 5 -13 -13 -15 -18
-1 -23 2 -19 13 7 18 18 19 32 2z m237 -105 c-3 -3 -11 0 -18 7 -9 10 -8 11 6
5 10 -3 15 -9 12 -12z m-975 -256 c0 -2 -8 -10 -17 -17 -16 -13 -17 -12 -4 4
13 16 21 21 21 13z m-70 -86 c-23 -27 -47 -53 -53 -57 -13 -7 11 24 57 75 46
49 43 38 -4 -18z m908 -27 c-10 -2 -26 -2 -35 0 -10 3 -2 5 17 5 19 0 27 -2
18 -5z m-1023 -83 c3 -5 -1 -10 -9 -10 -9 0 -16 5 -16 10 0 6 4 10 9 10 6 0
13 -4 16 -10z m147 -47 c-3 -18 2 -23 18 -23 18 0 21 -5 18 -32 -2 -26 -8 -34
-27 -36 -19 -3 -22 0 -17 14 6 15 1 16 -40 10 -37 -5 -53 -2 -80 15 -19 11
-34 24 -34 27 0 22 84 52 135 49 25 -2 29 -6 27 -24z m1048 -144 c0 -12 -7
-19 -20 -19 -26 0 -36 25 -20 45 16 19 40 2 40 -26z m-730 -43 c0 -3 -4 -8
-10 -11 -5 -3 -10 -1 -10 4 0 6 5 11 10 11 6 0 10 -2 10 -4z m252 -81 c-4 -21
-7 -23 -19 -13 -13 10 -13 14 3 25 23 17 22 17 16 -12z m-32 -25 c0 -5 -8 -10
-17 -10 -15 0 -16 2 -3 10 19 12 20 12 20 0z m1005 -311 c34 -30 46 -59 25
-59 -5 0 -10 5 -10 12 0 6 -6 3 -14 -7 -13 -18 -14 -17 -30 13 -15 29 -22 72
-11 72 2 0 20 -14 40 -31z m-49 -85 c17 -59 85 -144 115 -144 10 0 19 4 19 10
0 5 7 7 15 4 8 -4 15 -15 15 -25 0 -11 6 -22 13 -24 6 -3 13 -21 15 -41 9
-129 56 -244 100 -244 16 0 22 -6 22 -22 0 -16 3 -19 8 -10 13 20 38 -15 52
-76 6 -28 16 -55 21 -58 5 -3 9 -13 9 -23 0 -10 11 -39 25 -65 14 -26 30 -68
35 -93 6 -25 19 -63 30 -86 11 -22 17 -43 15 -46 -3 -3 -22 4 -42 14 -34 19
-51 20 -46 3 2 -4 -26 -5 -62 -1 -41 4 -75 1 -94 -6 -35 -15 -57 -6 -106 44
-29 28 -31 34 -20 55 10 19 10 30 -2 59 -8 20 -18 39 -22 44 -12 12 -75 -74
-76 -102 0 -15 -6 -26 -13 -26 -8 0 -19 -8 -26 -18 -17 -22 -26 -22 -26 1 0
27 -9 32 -36 20 -13 -6 -27 -8 -30 -5 -9 9 5 59 15 52 5 -2 11 2 15 10 7 18
-15 15 -30 -4 -9 -12 -12 -11 -16 6 -4 16 -1 19 18 17 13 -1 24 3 24 9 1 7 5
6 13 -3 25 -31 57 -24 107 25 l48 48 -14 39 c-7 22 -25 61 -38 86 -14 26 -45
101 -70 167 -25 66 -64 167 -86 225 -23 58 -49 122 -56 144 -8 21 -21 51 -29
66 -8 15 -11 31 -7 34 3 4 0 12 -8 17 -12 8 -11 9 5 7 11 -2 20 -10 20 -18 0
-21 40 -51 59 -44 11 4 14 13 10 29 -5 18 0 25 23 33 38 13 69 -16 89 -84z
m64 -659 c0 -8 -58 -35 -75 -35 -27 0 -11 25 21 31 39 9 54 10 54 4z m390
-396 c25 -6 54 -12 65 -14 80 -11 92 -17 131 -68 38 -50 56 -110 27 -85 -18
15 -83 -38 -96 -78 -12 -38 -10 -36 -41 -28 -20 5 -26 12 -24 27 2 14 -3 23
-15 25 -25 5 -76 -20 -83 -40 -3 -10 -11 -18 -17 -18 -7 0 -6 -4 3 -10 8 -5
40 -10 70 -10 52 0 91 -12 79 -25 -8 -7 -72 -9 -144 -3 -42 3 -63 1 -70 -8
-12 -15 -85 -46 -85 -35 0 4 6 13 13 20 10 10 8 16 -10 31 -13 10 -23 21 -23
24 0 12 28 6 40 -9 19 -23 52 -1 44 30 -4 17 -1 24 13 28 15 4 14 5 -4 6 -14
1 -28 12 -38 31 -9 17 -17 30 -19 30 -3 0 -21 -22 -41 -50 -20 -27 -41 -50
-45 -50 -5 0 9 35 30 79 l40 78 -16 53 c-8 29 -12 56 -7 60 19 19 157 24 223
9z m-2170 -74 c-11 -32 -19 -60 -17 -62 2 -1 37 22 77 52 40 30 75 55 77 55 4
0 -68 -132 -78 -144 -5 -6 -24 -3 -48 6 l-39 16 -27 -77 c-14 -42 -28 -83 -31
-91 -4 -12 -9 -9 -25 10 -10 14 -18 30 -16 36 3 16 141 264 144 260 2 -1 -6
-29 -17 -61z m1710 6 c-11 -42 -23 -48 -64 -32 -16 6 -14 12 24 44 24 20 45
35 47 33 3 -2 -1 -22 -7 -45z m1020 -143 c0 -5 -9 -4 -20 2 -11 6 -18 15 -14
21 6 11 34 -7 34 -23z m-1083 -3 c-7 -16 -47 -22 -47 -7 0 9 42 32 49 26 2 -2
1 -10 -2 -19z m807 -1 c3 -8 2 -12 -4 -9 -6 3 -10 10 -10 16 0 14 7 11 14 -7z
m-964 -15 c0 -14 -41 -51 -48 -44 -7 6 27 55 38 55 6 0 10 -5 10 -11z m658
-179 c17 0 15 -19 -2 -26 -8 -3 -24 4 -35 15 -11 11 -31 27 -45 36 -20 13 -23
19 -13 30 10 11 18 7 47 -21 20 -19 41 -34 48 -34z m36 -35 c4 -10 -1 -15 -14
-15 -20 0 -26 11 -13 23 10 11 20 8 27 -8z m-877 -12 c-9 -9 -20 -13 -24 -9
-4 4 -1 11 7 16 25 16 35 11 17 -7z m-1667 -13 c0 -15 -159 -90 -189 -90 -18
0 -7 8 37 26 35 15 82 37 105 50 49 28 47 27 47 14z m2236 -69 c-28 -30 -112
-68 -124 -57 -13 13 -9 35 6 41 10 3 21 -1 28 -10 11 -15 13 -14 18 3 4 11 23
27 44 36 54 22 59 20 28 -13z m393 20 c15 -10 7 -31 -13 -31 -7 0 -21 9 -31
20 -18 19 -17 20 6 20 13 0 30 -4 38 -9z m-660 -94 c-8 -7 -18 -19 -21 -28 -6
-14 -85 -45 -94 -36 -4 4 81 61 106 70 24 9 26 7 9 -6z m991 -37 c0 -5 -2 -10
-4 -10 -3 0 -8 5 -11 10 -3 6 -1 10 4 10 6 0 11 -4 11 -10z"/>
<path d="M2672 1860 c0 -14 2 -19 5 -12 2 6 2 18 0 25 -3 6 -5 1 -5 -13z"/>
<path d="M2956 1231 c2 -24 11 -53 19 -64 l15 -21 0 22 c0 12 5 22 12 22 6 0
0 10 -14 23 -15 12 -29 31 -32 42 -3 11 -3 0 0 -24z"/>
<path d="M2550 980 c0 -5 5 -10 11 -10 5 0 7 5 4 10 -3 6 -8 10 -11 10 -2 0
-4 -4 -4 -10z"/>
<path d="M3225 651 c-6 -11 9 -23 19 -14 9 9 7 23 -3 23 -6 0 -12 -4 -16 -9z"/>
<path d="M3170 599 c0 -5 5 -7 10 -4 6 3 10 8 10 11 0 2 -4 4 -10 4 -5 0 -10
-5 -10 -11z"/>
<path d="M2500 3989 c0 -5 5 -7 10 -4 6 3 10 8 10 11 0 2 -4 4 -10 4 -5 0 -10
-5 -10 -11z"/>
<path d="M3265 3973 c6 -6 39 -34 75 -62 88 -70 232 -213 286 -285 86 -113
164 -283 164 -355 0 -39 9 -61 26 -61 26 0 -11 140 -66 249 -73 145 -222 317
-380 439 -98 76 -120 91 -105 75z"/>
<path d="M2560 3946 c0 -2 7 -9 15 -16 13 -11 14 -10 9 4 -5 14 -24 23 -24 12z"/>
<path d="M1438 3863 c7 -3 16 -2 19 1 4 3 -2 6 -13 5 -11 0 -14 -3 -6 -6z"/>
<path d="M1445 3825 c10 -8 33 -15 50 -13 16 1 40 -2 53 -6 13 -5 22 -3 22 3
0 6 -10 12 -22 13 -13 0 -34 2 -48 3 -14 1 -36 5 -50 9 -24 7 -24 6 -5 -9z"/>
<path d="M2653 3807 c6 -13 17 -24 24 -24 18 0 16 10 -7 30 -27 23 -30 22 -17
-6z"/>
<path d="M2770 3680 c35 -31 50 -37 50 -21 0 9 -65 51 -78 51 -4 -1 9 -14 28
-30z"/>
<path d="M1409 3665 c36 -16 117 -20 125 -6 6 8 -73 21 -129 21 l-30 -1 34
-14z"/>
<path d="M2730 3657 c0 -9 9 -21 21 -27 31 -17 33 -7 4 20 -20 19 -25 20 -25
7z"/>
<path d="M2744 3535 c3 -9 6 -21 6 -25 0 -9 71 -32 78 -25 2 2 -2 16 -10 32
-10 21 -21 29 -47 31 -28 3 -33 1 -27 -13z"/>
<path d="M2420 3400 c0 -5 5 -10 10 -10 6 0 10 5 10 10 0 6 -4 10 -10 10 -5 0
-10 -4 -10 -10z"/>
<path d="M2725 3363 c16 -47 35 -55 35 -14 0 21 -5 31 -15 31 -8 0 -15 5 -15
10 0 6 -4 10 -9 10 -5 0 -3 -17 4 -37z"/>
<path d="M2122 3370 c0 -14 2 -19 5 -12 2 6 2 18 0 25 -3 6 -5 1 -5 -13z"/>
<path d="M2305 3354 c-22 -8 -44 -20 -50 -26 -7 -8 -6 -9 4 -3 11 6 13 4 7
-11 -6 -15 -5 -17 5 -6 7 6 21 12 30 12 9 0 24 11 33 25 9 14 15 25 14 24 -2
0 -21 -7 -43 -15z"/>
<path d="M2345 3330 c-14 -22 -32 -40 -40 -40 -8 0 -19 -9 -25 -20 -6 -11 -9
-20 -6 -20 14 0 56 24 56 32 0 5 6 6 13 2 6 -4 9 -4 5 1 -4 4 1 20 11 34 29
42 33 51 22 51 -6 0 -22 -18 -36 -40z"/>
<path d="M2780 3356 c0 -2 4 -16 10 -30 9 -24 14 -26 72 -25 l63 1 -50 22
c-59 27 -95 39 -95 32z"/>
<path d="M2156 3331 c-4 -6 -12 -9 -17 -6 -18 12 -9 -12 13 -31 12 -10 18 -13
13 -5 -6 11 -2 13 19 9 21 -4 24 -3 15 6 -7 6 -18 17 -25 25 -8 10 -13 11 -18
2z"/>
<path d="M2528 3273 c7 -3 16 -2 19 1 4 3 -2 6 -13 5 -11 0 -14 -3 -6 -6z"/>
<path d="M3365 3270 c3 -5 -7 -10 -22 -12 -19 -2 -4 -8 45 -17 78 -14 99 -11
61 10 -30 16 -90 29 -84 19z"/>
<path d="M3000 3226 c0 -5 30 -14 103 -32 17 -4 27 -2 27 5 0 6 -3 10 -7 10
-5 -1 -10 0 -13 1 -3 1 -14 3 -25 4 -11 2 -35 6 -52 10 -18 4 -33 5 -33 2z"/>
<path d="M3190 3196 c0 -2 14 -14 30 -26 17 -12 30 -19 30 -16 0 2 -13 14 -30
26 -16 12 -30 19 -30 16z"/>
<path d="M3500 3183 c8 -3 33 -12 55 -19 l40 -13 -24 20 c-13 10 -37 19 -55
18 -17 0 -24 -3 -16 -6z"/>
<path d="M3778 3137 c6 -7 9 -22 6 -34 -7 -27 15 -42 28 -18 9 15 14 14 47
-17 l36 -33 -37 40 c-21 23 -38 49 -38 58 0 12 -8 17 -26 17 -21 0 -24 -3 -16
-13z"/>
<path d="M3139 3080 l-15 -50 34 -11 c39 -13 45 -8 62 44 6 20 15 37 18 37 7
0 26 -11 110 -62 50 -31 38 -15 -20 24 -43 29 -140 69 -167 68 -3 0 -13 -23
-22 -50z"/>
<path d="M3591 3062 c73 -51 129 -77 274 -127 13 -4 6 7 -20 32 -31 30 -73 52
-183 96 -78 31 -145 57 -149 57 -3 0 31 -26 78 -58z"/>
<path d="M3561 2929 c180 -128 351 -230 312 -187 -10 11 -57 52 -106 91 -85
67 -87 70 -70 89 15 16 15 21 3 28 -10 6 -23 4 -38 -6 -21 -14 -26 -12 -85 28
-61 42 -158 87 -186 88 -8 0 68 -59 170 -131z"/>
<path d="M3077 2970 c-33 -39 -33 -45 -2 -66 31 -20 46 -15 80 31 31 40 27 51
-21 61 -26 5 -35 1 -57 -26z"/>
<path d="M3894 2807 l101 -103 3 55 c2 35 -1 58 -10 66 -11 10 -179 85 -191
85 -2 0 41 -46 97 -103z"/>
<path d="M3550 2885 c0 -2 10 -10 23 -16 20 -11 21 -11 8 4 -13 16 -31 23 -31
12z"/>
<path d="M3345 2820 c-3 -5 -2 -10 4 -10 5 0 18 -3 28 -7 16 -6 16 -5 4 10
-15 19 -27 22 -36 7z"/>
<path d="M3200 2795 l-55 -12 40 -7 c22 -4 48 -9 57 -10 9 -2 38 1 65 7 l48
10 -35 13 c-42 15 -50 15 -120 -1z"/>
<path d="M2570 2766 c0 -2 7 -7 16 -10 8 -3 12 -2 9 4 -6 10 -25 14 -25 6z"/>
<path d="M2615 2730 c3 -5 8 -10 11 -10 2 0 4 5 4 10 0 6 -5 10 -11 10 -5 0
-7 -4 -4 -10z"/>
<path d="M735 2700 c-7 -11 16 -11 60 0 28 7 28 8 -12 9 -23 0 -45 -3 -48 -9z"/>
<path d="M1400 2620 c0 -5 5 -10 11 -10 5 0 7 5 4 10 -3 6 -8 10 -11 10 -2 0
-4 -4 -4 -10z"/>
<path d="M90 2275 c-7 -9 -10 -18 -7 -21 10 -11 37 5 37 21 0 19 -14 19 -30 0z"/>
<path d="M13 2263 c-7 -2 -13 -14 -13 -25 0 -27 30 -20 41 10 8 22 0 27 -28
15z"/>
<path d="M2970 2203 c1 -23 46 -57 140 -103 58 -29 103 -50 100 -47 -8 9 -195
133 -218 146 -12 7 -22 8 -22 4z"/>
<path d="M99 2154 c-11 -14 -9 -15 16 -12 16 1 30 9 33 16 6 18 -33 15 -49 -4z"/>
<path d="M0 2130 c0 -28 2 -30 20 -20 27 14 27 50 0 50 -16 0 -20 -7 -20 -30z"/>
<path d="M3300 2046 c0 -2 11 -11 25 -20 14 -9 25 -13 25 -8 0 5 -11 14 -25
20 -14 6 -25 10 -25 8z"/>
<path d="M3410 1980 c0 -15 164 -120 169 -107 2 6 -8 20 -22 31 -43 34 -147
88 -147 76z"/>
<path d="M3619 1848 c4 -13 23 -32 42 -43 l34 -20 -23 33 c-13 18 -32 37 -42
42 -17 9 -19 8 -11 -12z"/>
<path d="M3750 1772 c0 -13 40 -62 50 -62 4 0 6 8 3 18 -5 19 -53 59 -53 44z"/>
<path d="M1211 1706 c2 -2 18 -6 34 -10 22 -5 26 -4 15 4 -14 9 -59 15 -49 6z"/>
<path d="M3842 1698 c2 -6 20 -23 39 -37 l34 -25 -34 37 c-37 39 -45 45 -39
25z"/>
<path d="M0 1673 c0 -25 55 -77 159 -148 99 -69 94 -47 -9 40 -39 33 -89 75
-110 94 -34 29 -40 31 -40 14z"/>
<path d="M1097 1669 c7 -7 15 -10 18 -7 3 3 -2 9 -12 12 -14 6 -15 5 -6 -5z"/>
<path d="M790 1657 l-35 -9 54 -19 c51 -18 112 -16 94 2 -23 23 -79 36 -113
26z"/>
<path d="M3625 1598 c27 -31 51 -55 53 -54 8 9 -15 39 -56 73 l-47 38 50 -57z"/>
<path d="M656 1615 c-33 -13 -83 -40 -111 -59 -58 -40 -130 -113 -102 -103 10
4 15 3 12 -2 -3 -5 -1 -12 5 -16 5 -3 10 -1 10 6 0 7 3 10 6 6 3 -3 41 16 84
42 43 27 122 64 176 83 l97 35 -48 17 c-61 20 -58 20 -129 -9z"/>
<path d="M0 1370 l0 -249 28 -15 27 -15 -27 -1 -28 0 0 -83 c0 -79 1 -84 24
-95 21 -9 33 -7 71 13 44 24 78 35 43 14 -10 -5 -18 -16 -18 -24 0 -8 -10 -19
-21 -26 -17 -8 -20 -8 -14 1 5 8 2 10 -11 7 -11 -4 -31 -9 -46 -13 l-28 -6 0
-209 c0 -243 -8 -231 110 -171 208 104 460 309 460 374 0 19 -40 28 -122 28
-37 0 -57 4 -53 10 9 14 5 13 -40 -10 -41 -21 -58 -13 -35 15 10 13 8 15 -11
15 -32 0 -12 18 29 26 28 6 32 4 25 -12 -4 -11 -8 -13 -11 -6 -2 7 -8 12 -14
12 -6 0 -6 -6 2 -15 16 -20 27 -19 57 5 14 11 40 20 57 20 22 0 27 3 17 9 -12
8 -8 15 18 36 44 38 31 43 -21 8 -39 -25 -49 -28 -108 -23 l-65 5 107 45 c59
25 108 48 108 52 0 4 -25 -4 -57 -17 -31 -14 -58 -24 -59 -22 -2 2 19 20 46
41 54 41 61 55 30 63 -11 3 -17 9 -14 14 3 5 -5 22 -17 38 l-21 29 -94 -43
c-51 -24 -90 -37 -88 -30 3 7 17 16 32 20 28 7 122 72 122 84 0 18 -64 92 -85
97 -12 3 -36 -1 -51 -9 -16 -8 -54 -21 -84 -30 -102 -28 -110 -29 -110 -12 0
10 10 15 29 15 37 0 61 9 61 24 1 6 9 29 20 51 11 22 19 45 19 50 0 6 -31 34
-69 64 -66 51 -86 70 -57 56 6 -4 -1 5 -16 19 -15 14 -32 26 -38 26 -5 0 -9
-100 -9 -250z m165 -370 c-3 -5 -12 -10 -18 -10 -7 0 -6 4 3 10 19 12 23 12
15 0z m-70 -20 c-11 -5 -27 -9 -35 -9 -13 -1 -13 0 0 9 8 5 24 9 35 9 l20 0
-20 -9z m26 -188 c-27 -19 -92 -48 -76 -34 34 30 70 52 84 51 12 0 10 -4 -8
-17z"/>
<path d="M1178 1563 c7 -3 16 -2 19 1 4 3 -2 6 -13 5 -11 0 -14 -3 -6 -6z"/>
<path d="M880 1530 l-35 -7 37 -2 c20 0 40 4 43 9 7 11 7 11 -45 0z"/>
<path d="M1070 1500 c0 -5 5 -10 10 -10 6 0 10 5 10 10 0 6 -4 10 -10 10 -5 0
-10 -4 -10 -10z"/>
<path d="M980 1490 c-12 -8 -11 -10 8 -10 12 0 22 5 22 10 0 13 -11 13 -30 0z"/>
<path d="M3770 1454 c12 -32 45 -76 94 -127 72 -76 74 -78 69 -46 -6 38 -36
79 -122 163 l-61 60 20 -50z"/>
<path d="M690 1363 c-95 -50 -158 -72 -169 -59 -7 8 3 18 35 35 24 13 42 26
40 28 -12 12 -84 10 -104 -4 -13 -8 -30 -12 -38 -9 -26 10 -14 -9 36 -59 33
-32 50 -58 50 -73 0 -18 -4 -22 -13 -16 -7 5 -4 1 7 -9 21 -20 83 -20 79 -1
-1 6 33 25 75 42 42 17 73 32 67 32 -5 0 -3 5 5 10 22 14 30 12 24 -5 -5 -13
-3 -13 21 -1 15 8 34 12 43 9 9 -4 13 -2 9 4 -7 11 24 23 58 22 13 0 8 -5 -15
-14 -49 -19 -22 -18 31 0 53 19 199 32 184 17 -5 -5 -46 -20 -89 -31 -44 -12
-86 -26 -95 -32 -13 -8 -13 -9 4 -5 23 5 132 33 185 46 19 5 70 12 113 16 42
4 77 10 77 13 -1 9 -44 39 -61 41 -27 4 -38 0 -33 -13 6 -16 -56 -14 -151 5
-55 11 -58 13 -30 20 17 4 -10 5 -60 2 -85 -5 -182 -21 -141 -23 30 -2 0 -29
-41 -37 -45 -8 -68 11 -24 21 17 4 29 10 26 15 -3 5 2 13 11 18 13 7 7 11 -27
14 -32 3 -55 -2 -89 -19z m220 -7 c0 -2 -9 -6 -20 -9 -11 -3 -18 -1 -14 4 5 9
34 13 34 5z"/>
<path d="M3948 1162 c-46 -92 -47 -93 -27 -113 10 -10 19 -25 19 -33 0 -7 14
-30 30 -51 l30 -38 0 87 0 86 -27 1 c-16 0 -22 3 -15 6 6 2 10 9 7 14 -3 5 4
21 15 37 15 20 20 40 18 63 -3 32 -5 29 -50 -59z"/>
<path d="M1128 1213 c18 -2 45 -2 60 0 15 2 0 4 -33 4 -33 0 -45 -2 -27 -4z"/>
<path d="M3909 1186 c-20 -29 -71 -73 -55 -47 4 5 -2 9 -13 8 -18 -1 -17 -3 6
-34 14 -18 29 -33 33 -33 3 0 11 15 17 33 6 17 18 49 27 70 20 46 16 47 -15 3z"/>
<path d="M1038 1189 c-21 -11 -38 -22 -38 -24 0 -5 79 32 89 41 12 11 -18 1
-51 -17z"/>
<path d="M1228 1203 c6 -2 18 -2 25 0 6 3 1 5 -13 5 -14 0 -19 -2 -12 -5z"/>
<path d="M590 1082 c0 -5 7 -30 16 -56 19 -56 34 -46 32 21 0 38 -3 43 -24 43
-13 0 -24 -4 -24 -8z"/>
<path d="M658 1027 c-5 -10 -8 -33 -8 -50 1 -27 2 -29 11 -14 6 9 9 32 7 50
-2 25 -5 28 -10 14z"/>
<path d="M328 903 c7 -3 16 -2 19 1 4 3 -2 6 -13 5 -11 0 -14 -3 -6 -6z"/>
<path d="M3561 862 c10 -16 59 -46 59 -36 0 7 -54 53 -63 54 -4 0 -2 -8 4 -18z"/>
<path d="M3558 468 c-18 -15 -34 -58 -21 -58 5 0 17 16 26 35 18 39 18 41 -5
23z"/>
<path d="M130 445 c-46 -18 -28 -18 35 -1 30 9 40 14 25 14 -14 0 -41 -6 -60
-13z"/>
</g>
</svg>
