<?xml version="1.0" standalone="no"?>
<!DOCTYPE svg PUBLIC "-//W3C//DTD SVG 20010904//EN"
 "http://www.w3.org/TR/2001/REC-SVG-20010904/DTD/svg10.dtd">
<svg version="1.0" xmlns="http://www.w3.org/2000/svg"
 width="240.000000pt" height="240.000000pt" viewBox="0 0 240.000000 240.000000"
 preserveAspectRatio="xMidYMid meet">

<g transform="translate(0.000000,240.000000) scale(0.100000,-0.100000)"
fill="#000000" stroke="none">
<path d="M963 1990 c-92 -19 -181 -85 -225 -167 -51 -93 -56 -220 -13 -303 14
-27 14 -33 0 -60 -61 -118 -26 -293 78 -387 95 -85 243 -113 350 -65 l47 21
48 -21 c34 -16 67 -21 124 -22 66 0 85 5 141 32 122 60 191 169 191 302 -1 55
-6 88 -22 123 -20 45 -20 51 -6 78 60 117 24 292 -79 386 -95 85 -243 113
-349 65 -47 -21 -49 -21 -90 -2 -53 23 -139 32 -195 20z m192 -315 c5 -33 3
-58 -9 -90 -23 -59 -41 -73 -66 -50 -46 42 -51 143 -10 211 l23 37 28 -31 c17
-19 30 -48 34 -77z m186 51 c24 -54 24 -110 -2 -163 -23 -48 -41 -54 -64 -20
-44 67 -43 154 2 207 29 35 39 32 64 -24z m39 -336 l0 -110 -180 0 -180 0 0
110 0 110 180 0 180 0 0 -110z"/>
<path d="M1082 1418 c-11 -11 -17 -58 -8 -58 2 0 11 -3 19 -6 14 -5 47 20 47
36 0 10 -29 40 -39 40 -4 0 -12 -5 -19 -12z m33 -28 c0 -7 -6 -15 -12 -17 -8
-3 -13 4 -13 17 0 13 5 20 13 18 6 -3 12 -11 12 -18z"/>
<path d="M1270 1390 c0 -27 3 -30 30 -30 27 0 30 3 30 30 0 27 -3 30 -30 30
-27 0 -30 -3 -30 -30z"/>
<path d="M410 750 c0 -28 3 -30 35 -30 32 0 35 2 35 30 0 28 -3 30 -35 30 -32
0 -35 -2 -35 -30z"/>
<path d="M750 635 l0 -146 43 0 c23 0 60 -1 81 -1 31 -1 44 4 64 27 21 25 24
36 20 83 -6 71 -32 95 -95 90 l-43 -3 0 47 0 48 -35 0 -35 0 0 -145z m134 -11
c33 -32 14 -84 -31 -84 -35 0 -51 41 -29 75 19 29 38 32 60 9z"/>
<path d="M990 635 l0 -145 35 0 34 0 3 68 3 67 30 0 30 0 3 -67 3 -68 36 0 35
0 -3 79 c-3 60 -9 84 -23 100 -21 23 -65 28 -97 11 -18 -10 -19 -7 -19 45 l0
55 -35 0 -35 0 0 -145z"/>
<path d="M1720 750 c0 -28 3 -30 35 -30 32 0 35 2 35 30 0 28 -3 30 -35 30
-32 0 -35 -2 -35 -30z"/>
<path d="M410 580 c0 -99 -2 -111 -20 -122 -27 -17 -27 -58 1 -58 23 0 60 18
71 34 4 6 8 66 8 134 l0 122 -30 0 -30 0 0 -110z"/>
<path d="M1278 674 c-35 -18 -48 -43 -48 -89 0 -47 13 -71 50 -90 37 -19 73
-19 110 0 37 19 50 43 50 90 0 47 -13 71 -50 90 -36 19 -77 19 -112 -1z m99
-92 l1 -40 -41 1 c-40 2 -40 2 -40 40 1 20 2 38 2 40 1 1 18 2 38 1 37 -1 38
-2 40 -42z"/>
<path d="M1472 547 l3 -142 33 -3 c32 -3 32 -3 32 41 l0 44 44 -1 c79 -2 124
71 92 148 -19 46 -37 54 -129 54 l-78 1 3 -142z m132 80 c22 -16 18 -65 -6
-81 -41 -25 -81 52 -42 81 10 7 21 13 24 13 3 0 14 -6 24 -13z"/>
<path d="M1720 590 l0 -100 35 0 35 0 0 100 0 100 -35 0 -35 0 0 -100z"/>
<path d="M1830 590 l0 -100 30 0 c29 0 29 0 32 66 2 49 7 70 20 77 31 20 48
-8 48 -79 l0 -64 36 0 37 0 -5 82 c-4 69 -8 84 -28 100 -25 20 -61 23 -91 8
-13 -7 -19 -7 -19 0 0 5 -13 10 -30 10 l-30 0 0 -100z"/>
<path d="M526 658 c-8 -13 -15 -48 -15 -80 0 -77 19 -97 95 -96 81 1 103 22
103 96 0 32 -7 67 -15 80 -13 19 -23 22 -84 22 -61 0 -71 -3 -84 -22z"/>
</g>
</svg>
